<mxfile host="app.diagrams.net" agent="Mozilla/5.0 (Windows NT 10.0; Win64; x64) AppleWebKit/537.36 (KHTML, like Gecko) Chrome/128.0.0.0 Safari/537.36" version="24.7.12">
  <diagram name="PÃ¡gina-1" id="a7UVUzENwiKvaLnI1yhI">
    <mxGraphModel dx="1434" dy="780" grid="1" gridSize="10" guides="1" tooltips="1" connect="1" arrows="1" fold="1" page="1" pageScale="1" pageWidth="827" pageHeight="1169" math="0" shadow="0">
      <root>
        <mxCell id="0" />
        <mxCell id="1" parent="0" />
        <mxCell id="OQGx6LlO21kWG08P4XpY-1" value="Cliente" style="shape=umlActor;verticalLabelPosition=bottom;verticalAlign=top;html=1;" parent="1" vertex="1">
          <mxGeometry x="160" y="180" width="30" height="60" as="geometry" />
        </mxCell>
        <mxCell id="OQGx6LlO21kWG08P4XpY-2" value="" style="endArrow=none;dashed=1;html=1;strokeWidth=2;rounded=0;entryX=0;entryY=1;entryDx=0;entryDy=0;entryPerimeter=0;" parent="1" target="OQGx6LlO21kWG08P4XpY-1" edge="1">
          <mxGeometry width="50" height="50" relative="1" as="geometry">
            <mxPoint x="160" y="640" as="sourcePoint" />
            <mxPoint x="440" y="380" as="targetPoint" />
          </mxGeometry>
        </mxCell>
        <mxCell id="OQGx6LlO21kWG08P4XpY-3" value="&amp;lt;&amp;lt;Boundary&amp;gt;&amp;gt;&lt;div&gt;guiMensagem&lt;/div&gt;" style="rounded=0;whiteSpace=wrap;html=1;" parent="1" vertex="1">
          <mxGeometry x="360" y="140" width="120" height="60" as="geometry" />
        </mxCell>
        <mxCell id="OQGx6LlO21kWG08P4XpY-5" value="1. EnviaMensagem(Mensagem)" style="endArrow=block;html=1;rounded=0;endFill=1;entryX=0;entryY=0;entryDx=0;entryDy=5;entryPerimeter=0;" parent="1" target="OQGx6LlO21kWG08P4XpY-6" edge="1">
          <mxGeometry width="50" height="50" relative="1" as="geometry">
            <mxPoint x="160" y="285" as="sourcePoint" />
            <mxPoint x="320" y="310" as="targetPoint" />
          </mxGeometry>
        </mxCell>
        <mxCell id="OQGx6LlO21kWG08P4XpY-6" value="" style="html=1;points=[[0,0,0,0,5],[0,1,0,0,-5],[1,0,0,0,5],[1,1,0,0,-5]];perimeter=orthogonalPerimeter;outlineConnect=0;targetShapes=umlLifeline;portConstraint=eastwest;newEdgeStyle={&quot;curved&quot;:0,&quot;rounded&quot;:0};" parent="1" vertex="1">
          <mxGeometry x="401" y="280" width="10" height="120" as="geometry" />
        </mxCell>
        <mxCell id="OQGx6LlO21kWG08P4XpY-7" value="&amp;lt;&amp;lt;Controller&amp;gt;&amp;gt;&lt;div&gt;ctlMensagem&lt;/div&gt;" style="rounded=0;whiteSpace=wrap;html=1;" parent="1" vertex="1">
          <mxGeometry x="600" y="140" width="120" height="60" as="geometry" />
        </mxCell>
        <mxCell id="OQGx6LlO21kWG08P4XpY-8" value="&amp;lt;&amp;lt;Collection&amp;gt;&amp;gt;&lt;div&gt;DadosExternos&lt;/div&gt;" style="rounded=0;whiteSpace=wrap;html=1;" parent="1" vertex="1">
          <mxGeometry x="1080" y="140" width="120" height="60" as="geometry" />
        </mxCell>
        <mxCell id="OQGx6LlO21kWG08P4XpY-9" value="LLM (Decoder)" style="rounded=0;whiteSpace=wrap;html=1;" parent="1" vertex="1">
          <mxGeometry x="1320" y="140" width="120" height="60" as="geometry" />
        </mxCell>
        <mxCell id="OQGx6LlO21kWG08P4XpY-10" value="2. EnviaMensagem(Mensagem)" style="endArrow=block;html=1;rounded=0;endFill=1;entryX=0;entryY=0;entryDx=0;entryDy=5;entryPerimeter=0;exitX=1;exitY=0;exitDx=0;exitDy=5;exitPerimeter=0;" parent="1" edge="1">
          <mxGeometry width="50" height="50" relative="1" as="geometry">
            <mxPoint x="411" y="355" as="sourcePoint" />
            <mxPoint x="640" y="355" as="targetPoint" />
          </mxGeometry>
        </mxCell>
        <mxCell id="OQGx6LlO21kWG08P4XpY-11" value="" style="html=1;points=[[0,0,0,0,5],[0,1,0,0,-5],[1,0,0,0,5],[1,1,0,0,-5]];perimeter=orthogonalPerimeter;outlineConnect=0;targetShapes=umlLifeline;portConstraint=eastwest;newEdgeStyle={&quot;curved&quot;:0,&quot;rounded&quot;:0};" parent="1" vertex="1">
          <mxGeometry x="640" y="280" width="10" height="360" as="geometry" />
        </mxCell>
        <mxCell id="OQGx6LlO21kWG08P4XpY-12" value="" style="html=1;points=[[0,0,0,0,5],[0,1,0,0,-5],[1,0,0,0,5],[1,1,0,0,-5]];perimeter=orthogonalPerimeter;outlineConnect=0;targetShapes=umlLifeline;portConstraint=eastwest;newEdgeStyle={&quot;curved&quot;:0,&quot;rounded&quot;:0};" parent="1" vertex="1">
          <mxGeometry x="1120" y="400" width="10" height="80" as="geometry" />
        </mxCell>
        <mxCell id="OQGx6LlO21kWG08P4XpY-13" value="ConsultaDadosExternos(MensagemConvertida)" style="edgeStyle=orthogonalEdgeStyle;rounded=0;orthogonalLoop=1;jettySize=auto;html=1;curved=0;entryX=0;entryY=0;entryDx=0;entryDy=5;entryPerimeter=0;endArrow=block;endFill=1;exitX=1;exitY=0.347;exitDx=0;exitDy=0;exitPerimeter=0;" parent="1" source="OQGx6LlO21kWG08P4XpY-11" target="OQGx6LlO21kWG08P4XpY-12" edge="1">
          <mxGeometry relative="1" as="geometry">
            <mxPoint x="680" y="405" as="sourcePoint" />
          </mxGeometry>
        </mxCell>
        <mxCell id="OQGx6LlO21kWG08P4XpY-14" value="RetornaDadosProximos" style="edgeStyle=orthogonalEdgeStyle;rounded=0;orthogonalLoop=1;jettySize=auto;html=1;curved=0;exitX=0;exitY=1;exitDx=0;exitDy=-5;exitPerimeter=0;endArrow=open;endFill=0;dashed=1;dashPattern=1 4;entryX=1;entryY=0.542;entryDx=0;entryDy=0;entryPerimeter=0;" parent="1" source="OQGx6LlO21kWG08P4XpY-12" target="OQGx6LlO21kWG08P4XpY-11" edge="1">
          <mxGeometry relative="1" as="geometry">
            <mxPoint x="690" y="475" as="targetPoint" />
          </mxGeometry>
        </mxCell>
        <mxCell id="OQGx6LlO21kWG08P4XpY-15" value="" style="html=1;points=[[0,0,0,0,5],[0,1,0,0,-5],[1,0,0,0,5],[1,1,0,0,-5]];perimeter=orthogonalPerimeter;outlineConnect=0;targetShapes=umlLifeline;portConstraint=eastwest;newEdgeStyle={&quot;curved&quot;:0,&quot;rounded&quot;:0};" parent="1" vertex="1">
          <mxGeometry x="1360" y="560" width="10" height="80" as="geometry" />
        </mxCell>
        <mxCell id="OQGx6LlO21kWG08P4XpY-16" value="GeraResposta(MensagemConvertida, DadosRecuperados)" style="edgeStyle=orthogonalEdgeStyle;rounded=0;orthogonalLoop=1;jettySize=auto;html=1;curved=0;entryX=0;entryY=0;entryDx=0;entryDy=5;entryPerimeter=0;endArrow=block;endFill=1;exitX=1.067;exitY=0.808;exitDx=0;exitDy=0;exitPerimeter=0;" parent="1" source="OQGx6LlO21kWG08P4XpY-11" target="OQGx6LlO21kWG08P4XpY-15" edge="1">
          <mxGeometry relative="1" as="geometry">
            <mxPoint x="670" y="550" as="sourcePoint" />
          </mxGeometry>
        </mxCell>
        <mxCell id="OQGx6LlO21kWG08P4XpY-17" value="Encoder" style="rounded=0;whiteSpace=wrap;html=1;" parent="1" vertex="1">
          <mxGeometry x="840" y="140" width="120" height="60" as="geometry" />
        </mxCell>
        <mxCell id="OQGx6LlO21kWG08P4XpY-18" value="" style="html=1;points=[[0,0,0,0,5],[0,1,0,0,-5],[1,0,0,0,5],[1,1,0,0,-5]];perimeter=orthogonalPerimeter;outlineConnect=0;targetShapes=umlLifeline;portConstraint=eastwest;newEdgeStyle={&quot;curved&quot;:0,&quot;rounded&quot;:0};" parent="1" vertex="1">
          <mxGeometry x="880" y="280" width="10" height="80" as="geometry" />
        </mxCell>
        <mxCell id="OQGx6LlO21kWG08P4XpY-19" value="ConverteMensagem(Mensagem)" style="edgeStyle=orthogonalEdgeStyle;rounded=0;orthogonalLoop=1;jettySize=auto;html=1;curved=0;exitX=1;exitY=0;exitDx=0;exitDy=5;exitPerimeter=0;entryX=0;entryY=0;entryDx=0;entryDy=5;entryPerimeter=0;" parent="1" source="OQGx6LlO21kWG08P4XpY-11" target="OQGx6LlO21kWG08P4XpY-18" edge="1">
          <mxGeometry relative="1" as="geometry" />
        </mxCell>
        <mxCell id="OQGx6LlO21kWG08P4XpY-20" value="RetornaMensagemConvertida" style="edgeStyle=orthogonalEdgeStyle;rounded=0;orthogonalLoop=1;jettySize=auto;html=1;curved=0;exitX=0;exitY=1;exitDx=0;exitDy=-5;exitPerimeter=0;endArrow=open;endFill=0;dashed=1;dashPattern=1 4;entryX=1;entryY=0.208;entryDx=0;entryDy=0;entryPerimeter=0;" parent="1" source="OQGx6LlO21kWG08P4XpY-18" target="OQGx6LlO21kWG08P4XpY-11" edge="1">
          <mxGeometry relative="1" as="geometry">
            <mxPoint x="1130" y="485" as="sourcePoint" />
            <mxPoint x="660" y="355" as="targetPoint" />
          </mxGeometry>
        </mxCell>
        <mxCell id="OQGx6LlO21kWG08P4XpY-21" value="" style="endArrow=none;dashed=1;html=1;strokeWidth=2;rounded=0;entryX=0.333;entryY=1;entryDx=0;entryDy=0;entryPerimeter=0;" parent="1" source="OQGx6LlO21kWG08P4XpY-6" target="OQGx6LlO21kWG08P4XpY-3" edge="1">
          <mxGeometry width="50" height="50" relative="1" as="geometry">
            <mxPoint x="401" y="437.18" as="sourcePoint" />
            <mxPoint x="410" y="220" as="targetPoint" />
          </mxGeometry>
        </mxCell>
        <mxCell id="OQGx6LlO21kWG08P4XpY-22" value="" style="endArrow=none;dashed=1;html=1;strokeWidth=2;rounded=0;entryX=0.333;entryY=1;entryDx=0;entryDy=0;entryPerimeter=0;" parent="1" edge="1">
          <mxGeometry width="50" height="50" relative="1" as="geometry">
            <mxPoint x="641" y="280" as="sourcePoint" />
            <mxPoint x="640" y="200" as="targetPoint" />
          </mxGeometry>
        </mxCell>
        <mxCell id="OQGx6LlO21kWG08P4XpY-23" value="" style="endArrow=none;dashed=1;html=1;strokeWidth=2;rounded=0;entryX=0.333;entryY=1;entryDx=0;entryDy=0;entryPerimeter=0;" parent="1" edge="1">
          <mxGeometry width="50" height="50" relative="1" as="geometry">
            <mxPoint x="881" y="280" as="sourcePoint" />
            <mxPoint x="880" y="200" as="targetPoint" />
          </mxGeometry>
        </mxCell>
        <mxCell id="OQGx6LlO21kWG08P4XpY-24" value="" style="endArrow=none;dashed=1;html=1;strokeWidth=2;rounded=0;entryX=0.333;entryY=1;entryDx=0;entryDy=0;entryPerimeter=0;" parent="1" source="OQGx6LlO21kWG08P4XpY-12" edge="1">
          <mxGeometry width="50" height="50" relative="1" as="geometry">
            <mxPoint x="1121" y="280" as="sourcePoint" />
            <mxPoint x="1120" y="200" as="targetPoint" />
          </mxGeometry>
        </mxCell>
        <mxCell id="OQGx6LlO21kWG08P4XpY-25" value="" style="endArrow=none;dashed=1;html=1;strokeWidth=2;rounded=0;entryX=0.333;entryY=1;entryDx=0;entryDy=0;entryPerimeter=0;" parent="1" source="OQGx6LlO21kWG08P4XpY-15" target="OQGx6LlO21kWG08P4XpY-9" edge="1">
          <mxGeometry width="50" height="50" relative="1" as="geometry">
            <mxPoint x="1270" y="510" as="sourcePoint" />
            <mxPoint x="1350" y="260" as="targetPoint" />
          </mxGeometry>
        </mxCell>
        <mxCell id="eT-RCtjEt_WM6Eq9Irdi-1" value="RetornaResposta" style="edgeStyle=orthogonalEdgeStyle;rounded=0;orthogonalLoop=1;jettySize=auto;html=1;curved=0;exitX=0;exitY=1;exitDx=0;exitDy=-5;exitPerimeter=0;endArrow=open;endFill=0;dashed=1;dashPattern=1 4;entryX=1;entryY=1;entryDx=0;entryDy=-5;entryPerimeter=0;" parent="1" source="OQGx6LlO21kWG08P4XpY-15" target="OQGx6LlO21kWG08P4XpY-11" edge="1">
          <mxGeometry relative="1" as="geometry">
            <mxPoint x="810" y="620" as="targetPoint" />
            <mxPoint x="1280" y="620" as="sourcePoint" />
          </mxGeometry>
        </mxCell>
        <mxCell id="JSdIyYqnZbF_jCSn4dXV-1" value="" style="endArrow=none;dashed=1;html=1;strokeWidth=2;rounded=0;entryX=0.333;entryY=1;entryDx=0;entryDy=0;entryPerimeter=0;" edge="1" parent="1">
          <mxGeometry width="50" height="50" relative="1" as="geometry">
            <mxPoint x="880" y="640" as="sourcePoint" />
            <mxPoint x="880" y="360" as="targetPoint" />
          </mxGeometry>
        </mxCell>
        <mxCell id="JSdIyYqnZbF_jCSn4dXV-2" value="" style="endArrow=none;dashed=1;html=1;strokeWidth=2;rounded=0;entryX=0.333;entryY=1;entryDx=0;entryDy=0;entryPerimeter=0;" edge="1" parent="1">
          <mxGeometry width="50" height="50" relative="1" as="geometry">
            <mxPoint x="1120" y="640" as="sourcePoint" />
            <mxPoint x="1120" y="480" as="targetPoint" />
          </mxGeometry>
        </mxCell>
        <mxCell id="JSdIyYqnZbF_jCSn4dXV-4" value="ApresentaResposta" style="edgeStyle=orthogonalEdgeStyle;rounded=0;orthogonalLoop=1;jettySize=auto;html=1;curved=0;endArrow=open;endFill=0;dashed=1;dashPattern=1 4;entryX=1;entryY=1;entryDx=0;entryDy=-5;entryPerimeter=0;exitX=-0.16;exitY=0.32;exitDx=0;exitDy=0;exitPerimeter=0;" edge="1" parent="1" source="OQGx6LlO21kWG08P4XpY-11" target="OQGx6LlO21kWG08P4XpY-6">
          <mxGeometry relative="1" as="geometry">
            <mxPoint x="570" y="395" as="sourcePoint" />
            <mxPoint x="280" y="584" as="targetPoint" />
          </mxGeometry>
        </mxCell>
        <mxCell id="JSdIyYqnZbF_jCSn4dXV-5" value="SolicitaMensagem" style="edgeStyle=orthogonalEdgeStyle;rounded=0;orthogonalLoop=1;jettySize=auto;html=1;curved=0;endArrow=open;endFill=0;entryX=1;entryY=0;entryDx=0;entryDy=5;entryPerimeter=0;exitX=0;exitY=0;exitDx=0;exitDy=5;exitPerimeter=0;dashed=1;dashPattern=1 4;" edge="1" parent="1" source="OQGx6LlO21kWG08P4XpY-11" target="OQGx6LlO21kWG08P4XpY-6">
          <mxGeometry relative="1" as="geometry">
            <mxPoint x="560" y="280" as="sourcePoint" />
            <mxPoint x="401" y="300" as="targetPoint" />
          </mxGeometry>
        </mxCell>
      </root>
    </mxGraphModel>
  </diagram>
</mxfile>
